<svg width="347" height="347" viewBox="0 0 347 347" fill="none" xmlns="http://www.w3.org/2000/svg">
<g clip-path="url(#clip0_33_9)">
<path d="M157.471 157.043C157.471 176.737 152.303 192.688 141.968 204.895C130.9 217.834 115.641 224.304 96.1914 224.304C92.9362 224.304 88.0127 224.141 81.4209 223.815C74.9105 223.409 70.0277 223.205 66.7725 223.205C63.2731 223.205 61.5234 224.711 61.5234 227.722C61.5234 231.465 61.8896 237.04 62.6221 244.445C63.3545 251.851 63.7207 257.385 63.7207 261.047C63.7207 262.919 62.8662 263.854 61.1572 263.854C56.193 263.854 48.7467 263.692 38.8184 263.366C28.89 263.122 21.4437 263 16.4795 263C14.1195 263 12.9395 261.82 12.9395 259.46C12.9395 250.427 13.0615 236.877 13.3057 218.811C13.6312 200.663 13.7939 187.072 13.7939 178.039C13.7939 152.486 12.6953 125.63 10.498 97.4727L10.376 95.7637C10.2132 94.2174 11.4339 93.2816 14.0381 92.9561C20.3857 92.1423 34.3831 91.7354 56.0303 91.7354C68.807 91.7354 81.0547 91.8981 92.7734 92.2236C112.061 92.7933 127.604 98.8561 139.404 110.412C151.449 122.294 157.471 137.837 157.471 157.043ZM108.765 158.996C108.765 140.035 99.528 130.554 81.0547 130.554C68.0339 130.554 61.1979 131.286 60.5469 132.751C59.9772 133.809 59.6924 143.208 59.6924 160.949C59.6924 163.472 59.7738 167.215 59.9365 172.18C60.1807 177.062 60.3027 180.765 60.3027 183.288C60.3027 184.916 67.627 185.729 82.2754 185.729C99.9349 185.729 108.765 176.818 108.765 158.996ZM338.135 259.216C338.135 260.925 337.769 261.983 337.036 262.39C336.711 262.634 335.571 262.837 333.618 263C328.654 263.488 321.655 263.732 312.622 263.732C299.845 263.732 292.318 263.488 290.039 263C287.842 262.512 286.743 261.413 286.743 259.704C286.743 253.275 287.028 243.632 287.598 230.773C288.249 217.834 288.574 208.15 288.574 201.721C288.574 198.547 287.679 196.716 285.889 196.228C283.122 195.576 273.275 195.251 256.348 195.251C239.339 195.251 229.411 195.576 226.562 196.228C224.772 196.634 223.877 198.465 223.877 201.721C223.877 208.068 224.08 217.59 224.487 230.285C224.894 242.899 225.098 252.38 225.098 258.728C225.098 261.169 223.999 262.593 221.802 263C219.198 263.488 211.548 263.732 198.853 263.732C187.866 263.732 180.868 263.488 177.856 263C175.496 262.593 174.316 261.332 174.316 259.216C174.316 250.427 174.723 237.162 175.537 219.421C176.432 201.68 176.88 188.374 176.88 179.504C176.88 170.064 176.473 155.904 175.659 137.023C174.845 118.062 174.438 103.861 174.438 94.4209C174.438 92.6305 175.293 91.7354 177.002 91.7354C179.525 91.7354 183.309 91.8574 188.354 92.1016C193.481 92.3457 197.306 92.4678 199.829 92.4678C202.433 92.4678 206.34 92.3457 211.548 92.1016C216.838 91.8574 220.785 91.7354 223.389 91.7354C224.772 91.7354 225.464 92.4678 225.464 93.9326C225.464 100.036 225.016 109.191 224.121 121.398C223.226 133.524 222.778 142.639 222.778 148.742C222.778 151.59 223.551 153.259 225.098 153.747C227.214 154.398 237.63 154.724 256.348 154.724C273.763 154.724 283.854 154.398 286.621 153.747C288.574 153.259 289.551 151.59 289.551 148.742C289.551 142.883 289.266 134.053 288.696 122.253C288.127 110.371 287.842 101.46 287.842 95.5195C287.842 92.9967 288.859 91.7354 290.894 91.7354C293.254 91.7354 296.834 91.8574 301.636 92.1016C306.519 92.3457 310.181 92.4678 312.622 92.4678C314.982 92.4678 318.563 92.3457 323.364 92.1016C328.247 91.8574 331.909 91.7354 334.351 91.7354C336.711 91.7354 337.891 92.7119 337.891 94.665C337.891 104.024 337.484 118.143 336.67 137.023C335.938 155.904 335.571 170.064 335.571 179.504C335.571 188.374 335.978 201.68 336.792 219.421C337.687 237.162 338.135 250.427 338.135 259.216Z" fill="black"/>
</g>
<defs>
<clipPath id="clip0_33_9">
<rect width="346.667" height="346.667" fill="white"/>
</clipPath>
</defs>
</svg>
