<svg width="269" height="29" viewBox="0 0 269 29" fill="none" xmlns="http://www.w3.org/2000/svg">
<path d="M32 12.1294L31.0944 14.3144L31.6925 16.7662C31.8968 17.6038 32 18.4629 32 19.325V23.1413C32 23.1413 28.6069 21.2656 24.7925 21.76C19.8969 22.3944 14.3069 25.0088 14.3069 25.0088V24.6894C14.3067 23.7021 14.575 22.7334 15.0831 21.8869L15.1588 21.76V10.19C16.4313 8.9775 17.9131 8.03375 19.5163 7.3925C21.1333 6.7454 22.8589 6.41299 24.6006 6.41312H28.95C29.6936 6.41325 30.4239 6.60942 31.0675 6.98187C31.3563 7.14875 31.5888 7.38687 31.75 7.66625C31.9113 7.945 32 8.26625 32 8.6V12.1294Z" fill="url(#paint0_linear_5_42)"/>
<path d="M21.2631 6.82625V22.4881C17.5525 23.4912 14.3069 25.0087 14.3069 25.0087V24.6894C14.3072 24.5656 14.3117 24.4418 14.3203 24.3183L14.3228 24.2867C14.3275 24.2221 14.3335 24.1576 14.3406 24.0932C14.3411 24.0884 14.3414 24.0836 14.3419 24.0787C14.342 24.0787 14.3421 24.0787 14.3421 24.0786C14.4291 23.3034 14.6818 22.5559 15.0831 21.8869L15.1588 21.76V10.19C16.4313 8.9775 17.9131 8.03375 19.5163 7.3925C20.0844 7.165 20.6681 6.97562 21.2631 6.82625Z" fill="url(#paint1_linear_5_42)"/>
<path d="M32 8.6V12.1294L31.0944 14.3144L31.6925 16.7662C31.8968 17.6038 32 18.4629 32 19.325V23.1413C32 23.1413 28.9513 21.4556 25.3844 21.7019V6.41312H28.95C29.6936 6.41325 30.4239 6.60942 31.0675 6.98187C31.3563 7.14875 31.5888 7.38687 31.75 7.66625C31.9113 7.945 32 8.26625 32 8.6Z" fill="url(#paint2_linear_5_42)"/>
<path d="M30.8338 20.9369C26.4706 19.815 22.0838 21.1787 17.6931 22.8256C17.0225 23.0776 15.4038 23.6795 14.3419 24.0785C14.3188 24.2813 14.3071 24.4852 14.3069 24.6894V25.0087C14.3069 25.975 15.2138 26.5619 16.1519 26.2019C16.6656 26.005 17.1794 25.8081 17.6931 25.615C22.1013 23.9616 26.5071 22.5934 30.8874 23.7407C31.0826 23.7919 31.268 23.8797 31.4248 24.0068L31.4322 24.0129C31.4776 24.0501 31.5295 24.08 31.5871 24.0916C31.6369 24.1022 31.6884 24.1014 31.7379 24.0895C31.7874 24.0776 31.8337 24.0548 31.8732 24.0227C31.9128 23.9907 31.9447 23.9502 31.9666 23.9043C31.9886 23.8583 32 23.808 32 23.7571V22.4344C32 21.7269 31.5188 21.1131 30.8338 20.9369Z" fill="url(#paint3_linear_5_42)"/>
<path d="M30.8338 20.9369C26.4706 19.815 22.0838 21.1787 17.6931 22.8256C17.0225 23.0776 15.4038 23.6795 14.3419 24.0785C14.3188 24.2813 14.3071 24.4852 14.3069 24.6894V25.0087C14.3069 25.975 15.2138 26.5619 16.1519 26.2019C16.6656 26.005 17.1794 25.8081 17.6931 25.615C22.1013 23.9616 26.5071 22.5934 30.8874 23.7407C31.0826 23.7919 31.268 23.8797 31.4248 24.0068L31.4322 24.0129C31.4776 24.0501 31.5295 24.08 31.5871 24.0916C31.6369 24.1022 31.6884 24.1014 31.7379 24.0895C31.7874 24.0776 31.8337 24.0548 31.8732 24.0227C31.9128 23.9907 31.9447 23.9502 31.9666 23.9043C31.9886 23.8583 32 23.808 32 23.7571V22.4344C32 21.7269 31.5188 21.1131 30.8338 20.9369Z" fill="url(#paint4_linear_5_42)"/>
<path d="M21.2631 21.5925V24.3819C20.0738 24.7425 18.8838 25.1681 17.6931 25.615C17.1794 25.8081 16.6656 26.005 16.1519 26.2019C15.2138 26.5619 14.3069 25.975 14.3069 25.0087V24.6894C14.3069 24.6381 14.3075 24.5869 14.3094 24.5356C14.3138 24.3825 14.325 24.23 14.3419 24.0787C15.4038 23.6794 17.0225 23.0775 17.6931 22.8256C18.8838 22.3787 20.0738 21.9531 21.2631 21.5925Z" fill="url(#paint5_linear_5_42)"/>
<path d="M32 12.1295V19.4523C32 18.7448 31.5187 18.1311 30.8337 17.9548C26.4706 16.8329 22.0837 18.1967 17.6931 19.8436C16.8481 20.1611 16.0031 20.4886 15.1587 20.8111V13.4882C16.0031 13.1657 16.8481 12.8382 17.6931 12.5207C22.0837 10.8739 26.4706 9.51012 30.8337 10.632C31.5187 10.8082 32 11.422 32 12.1295Z" fill="url(#paint6_linear_5_42)"/>
<path d="M21.2631 11.2875V18.6106C20.0737 18.9712 18.8837 19.3969 17.6931 19.8437C16.8481 20.1612 16.0031 20.4887 15.1587 20.8112V13.4881C16.0031 13.1656 16.8481 12.8381 17.6931 12.5206C18.8837 12.0737 20.0737 11.6481 21.2631 11.2875Z" fill="url(#paint7_linear_5_42)"/>
<path d="M32 6.02375V8.83125C32 8.12375 31.5187 7.51 30.8337 7.33375C26.4706 6.21187 22.0837 7.57562 17.6931 9.2225C16.8481 9.54 16.0031 9.86749 15.1587 10.19V7.3825C16.0031 7.06 16.8481 6.7325 17.6931 6.415C22.0837 4.76812 26.4706 3.40437 30.8337 4.52625C31.5187 4.7025 32 5.31625 32 6.02375Z" fill="url(#paint8_linear_5_42)"/>
<path d="M21.2631 5.18188V7.98938C20.0737 8.35 18.8837 8.77563 17.6931 9.2225C16.8481 9.54 16.0031 9.8675 15.1587 10.19V7.3825C16.0031 7.06 16.8481 6.7325 17.6931 6.415C18.8837 5.96813 20.0737 5.5425 21.2631 5.18188Z" fill="url(#paint9_linear_5_42)"/>
<path d="M32 12.1294V19.4525C32 18.745 31.5188 18.1312 30.8338 17.955C29.0206 17.4887 27.2038 17.4519 25.3844 17.6863V10.3631C27.2038 10.1287 29.0206 10.1656 30.8338 10.6319C31.5188 10.8081 32 11.4219 32 12.1294Z" fill="url(#paint10_linear_5_42)"/>
<path d="M30.8338 20.9369C29.0206 20.4706 27.2038 20.4338 25.3844 20.6681V23.4575C27.2227 23.2205 29.0581 23.2619 30.8891 23.7416C31.0786 23.7912 31.2591 23.8752 31.4126 23.9971C31.4192 24.0023 31.4258 24.0077 31.4324 24.0131C31.4777 24.0503 31.5298 24.0801 31.5873 24.0917C31.6371 24.1022 31.6886 24.1015 31.7381 24.0895C31.7876 24.0776 31.8338 24.0548 31.8733 24.0227C31.9129 23.9907 31.9447 23.9502 31.9667 23.9042C31.9886 23.8583 32 23.808 32 23.7571V22.4344C32 21.7269 31.5188 21.1131 30.8338 20.9369Z" fill="url(#paint11_linear_5_42)"/>
<path d="M30.8338 4.52625C29.0206 4.06 27.2038 4.02312 25.3844 4.2575V7.065C27.2038 6.83062 29.0206 6.8675 30.8338 7.33375C31.5188 7.51 32 8.12375 32 8.83125V6.02375C32 5.31625 31.5188 4.7025 30.8338 4.52625Z" fill="url(#paint12_linear_5_42)"/>
<path d="M17.6931 21.7584C17.6931 22.4254 17.2374 23.0681 16.5895 23.3148L15.1082 23.8788C14.6378 24.0579 14.3069 24.5246 14.3069 25.0089V20.5882L17.6931 19.3709V21.7584Z" fill="url(#paint13_linear_5_42)"/>
<path d="M17.6931 21.7584C17.6931 22.4254 17.2374 23.0681 16.5895 23.3148L15.1082 23.8788C14.6378 24.0579 14.3069 24.5246 14.3069 25.0089V20.5882L17.6931 19.3709V21.7584Z" fill="url(#paint14_linear_5_42)"/>
<path d="M17.6931 21.7584C17.6931 22.4254 17.2374 23.0681 16.5895 23.3148L15.1082 23.8788C14.6378 24.0579 14.3069 24.5246 14.3069 25.0089V20.5882L17.6931 19.3709V21.7584Z" fill="url(#paint15_linear_5_42)"/>
<path d="M17.6931 8.7225L16.9856 9.45812L17.5753 13.6541C17.6538 14.2123 17.6931 14.7754 17.6931 15.3391V19.3706L9.76125 21.7175C8.70164 22.0308 7.60245 22.1899 6.4975 22.19C5.38375 22.19 4.2825 22.0287 3.22625 21.715C2.16409 21.4002 1.15302 20.9335 0.224375 20.3294L0 20.1831V16.1194L1.48063 12.3987L0 9.29144V5.3225L4.28937 5.615C5.25937 5.72375 6.24188 5.64687 7.18375 5.38875L9.33562 4.8C11.5445 4.19511 13.8244 3.88864 16.1146 3.88875C16.9864 3.88875 17.6932 4.59575 17.6932 5.4675V8.7225H17.6931Z" fill="url(#paint16_linear_5_42)"/>
<path d="M17.6931 5.4675V8.7225L16.9856 9.45812L17.575 13.6544C17.6537 14.2125 17.6931 14.7756 17.6931 15.3394V19.3706L9.76125 21.7175C9.71187 21.7319 9.66187 21.7462 9.61187 21.76V4.72625C11.7344 4.17 13.9194 3.88875 16.1144 3.88875C16.9862 3.88875 17.6931 4.59562 17.6931 5.4675Z" fill="url(#paint17_linear_5_42)"/>
<path d="M17.6931 2.95687V5.77937C17.6931 4.96062 17.0238 4.42125 16.2481 4.52687C16.1325 4.5425 16.015 4.57187 15.8969 4.6175C15.5956 4.73312 15.2944 4.84812 14.9931 4.96312C14.7644 5.05 14.5356 5.13687 14.3069 5.22312C9.91688 6.87 5.52938 8.23375 1.16688 7.1125C1.04225 7.0805 0.718937 6.97769 0.444125 6.7775C0.1655 6.5745 0 6.13219 0 5.78744V4.20375C0 4.12352 0.0318704 4.04658 0.0886002 3.98985C0.14533 3.93312 0.222272 3.90125 0.3025 3.90125H0.355625C0.426563 3.90125 0.495375 3.926 0.5495 3.97187C0.728538 4.12331 0.939643 4.23209 1.16688 4.29C5.52938 5.41125 9.91688 4.0475 14.3069 2.40062C14.5356 2.31437 14.7644 2.2275 14.9931 2.14062C15.2944 2.02562 15.5956 1.91062 15.8969 1.795C16.015 1.74937 16.1325 1.72 16.2481 1.70437C17.0238 1.59875 17.6931 2.13812 17.6931 2.95687Z" fill="url(#paint18_linear_5_42)"/>
<path d="M17.6931 18.9362V21.7581C17.6931 20.9394 17.0238 20.4006 16.2481 20.5056C16.1325 20.5219 16.015 20.5512 15.8969 20.5969C15.3669 20.8 14.8369 21.0031 14.3069 21.2019C9.91688 22.8487 5.52938 24.2131 1.16688 23.0919C0.48125 22.9156 0 22.3012 0 21.5944V19.095C0 19.5081 0.315625 19.82 0.6625 20.0381C0.66875 20.0419 0.675 20.0462 0.68125 20.05C0.778342 20.1162 0.88279 20.171 0.9925 20.2131C1.04875 20.235 1.10688 20.2537 1.16688 20.2694C5.52938 21.3906 9.91688 20.0269 14.3069 18.38C14.5356 18.2937 14.7644 18.2069 14.9931 18.12C15.2944 18.005 15.5956 17.89 15.8969 17.7744C16.015 17.7287 16.1325 17.6994 16.2481 17.6837C17.0238 17.5781 17.6931 18.1175 17.6931 18.9362Z" fill="url(#paint19_linear_5_42)"/>
<path d="M17.6931 18.9362V21.7581C17.6931 20.9394 17.0238 20.4006 16.2481 20.5056C16.1325 20.5219 16.015 20.5512 15.8969 20.5969C15.3669 20.8 14.8369 21.0031 14.3069 21.2019C9.91688 22.8487 5.52938 24.2131 1.16688 23.0919C0.48125 22.9156 0 22.3012 0 21.5944V19.095C0 19.5081 0.315625 19.82 0.6625 20.0381C0.66875 20.0419 0.675 20.0462 0.68125 20.05C0.778342 20.1162 0.88279 20.171 0.9925 20.2131C1.04875 20.235 1.10688 20.2537 1.16688 20.2694C5.52938 21.3906 9.91688 20.0269 14.3069 18.38C14.5356 18.2937 14.7644 18.2069 14.9931 18.12C15.2944 18.005 15.5956 17.89 15.8969 17.7744C16.015 17.7287 16.1325 17.6994 16.2481 17.6837C17.0238 17.5781 17.6931 18.1175 17.6931 18.9362Z" fill="url(#paint20_linear_5_42)"/>
<path d="M17.6931 8.7225V15.9925C17.6931 15.1737 17.0238 14.6344 16.2481 14.74C16.1325 14.7556 16.015 14.785 15.8969 14.8306C15.5956 14.9462 15.2944 15.0612 14.9931 15.1762C14.7644 15.2631 14.5356 15.35 14.3069 15.4362C10.0399 17.0367 5.77525 18.3705 1.53387 17.4139C1.22637 17.3446 0.929062 17.2307 0.662375 17.0626C0.315812 16.8442 0 16.5321 0 16.1194V8.8125C0 9.71125 1.49938 10.1337 1.54813 10.1475C5.785 11.0975 10.045 9.76562 14.3069 8.16625C14.5356 8.08 14.7644 7.99312 14.9931 7.90625C15.2944 7.79125 15.5956 7.67625 15.8969 7.56062C16.015 7.515 16.1325 7.48562 16.2481 7.47C17.0238 7.36437 17.6931 7.90375 17.6931 8.7225Z" fill="url(#paint21_linear_5_42)"/>
<path d="M17.6931 2.95687V5.77937C17.6931 4.96062 17.0237 4.42125 16.2481 4.52687C16.1325 4.5425 16.015 4.57187 15.8969 4.6175C15.5956 4.73312 15.2944 4.84812 14.9931 4.96312C14.7644 5.05 14.5356 5.13687 14.3069 5.22312C12.7412 5.81062 11.1756 6.36187 9.61187 6.7775V3.955C11.1756 3.53937 12.7412 2.98812 14.3069 2.40062C14.5356 2.31437 14.7644 2.2275 14.9931 2.14062C15.2944 2.02562 15.5956 1.91062 15.8969 1.795C16.015 1.74937 16.1325 1.72 16.2481 1.70437C17.0237 1.59875 17.6931 2.13812 17.6931 2.95687Z" fill="url(#paint22_linear_5_42)"/>
<path d="M17.6931 18.9362V21.7581C17.6931 20.9394 17.0237 20.4006 16.2481 20.5056C16.1325 20.5219 16.015 20.5512 15.8969 20.5969C15.3669 20.8 14.8369 21.0031 14.3069 21.2019C12.7412 21.7894 11.1756 22.3406 9.61187 22.7556V19.9344C11.1756 19.5187 12.7412 18.9675 14.3069 18.38C14.5356 18.2937 14.7644 18.2069 14.9931 18.12C15.2944 18.005 15.5956 17.89 15.8969 17.7744C16.015 17.7287 16.1325 17.6994 16.2481 17.6837C17.0237 17.5781 17.6931 18.1175 17.6931 18.9362Z" fill="url(#paint23_linear_5_42)"/>
<path d="M17.6931 8.7225V15.9925C17.6931 15.1737 17.0237 14.6344 16.2481 14.74C16.1325 14.7556 16.015 14.785 15.8969 14.8306C15.5956 14.9462 15.2944 15.0612 14.9931 15.1762C14.7644 15.2631 14.5356 15.35 14.3069 15.4362C12.7412 16.0237 11.1756 16.575 9.61187 16.9906V9.72062C11.1756 9.305 12.7412 8.75375 14.3069 8.16625C14.5356 8.08 14.7644 7.99312 14.9931 7.90625C15.2944 7.79125 15.5956 7.67625 15.8969 7.56062C16.015 7.515 16.1325 7.48562 16.2481 7.47C17.0237 7.36437 17.6931 7.90375 17.6931 8.7225Z" fill="url(#paint24_linear_5_42)"/>
<path d="M44.25 23V5.15H58.375V23H54.6V8.3H48.025V23H44.25ZM74.9779 16.15C74.9779 17.2833 74.8196 18.2917 74.5029 19.175C74.2029 20.0583 73.7613 20.8083 73.1779 21.425C72.6113 22.025 71.9196 22.4833 71.1029 22.8C70.2863 23.1 69.3613 23.25 68.3279 23.25C67.3779 23.25 66.4946 23.1 65.6779 22.8C64.8779 22.4833 64.1863 22.025 63.6029 21.425C63.0196 20.8083 62.5613 20.0583 62.2279 19.175C61.9113 18.2917 61.7529 17.2833 61.7529 16.15C61.7529 14.6333 62.0196 13.3583 62.5529 12.325C63.0863 11.275 63.8529 10.475 64.8529 9.925C65.8529 9.375 67.0363 9.1 68.4029 9.1C69.6863 9.1 70.8196 9.375 71.8029 9.925C72.7863 10.475 73.5613 11.275 74.1279 12.325C74.6946 13.3583 74.9779 14.6333 74.9779 16.15ZM65.5529 16.15C65.5529 17.05 65.6446 17.8083 65.8279 18.425C66.0279 19.025 66.3363 19.4833 66.7529 19.8C67.1696 20.1 67.7113 20.25 68.3779 20.25C69.0446 20.25 69.5779 20.1 69.9779 19.8C70.3946 19.4833 70.6946 19.025 70.8779 18.425C71.0779 17.8083 71.1779 17.05 71.1779 16.15C71.1779 15.25 71.0779 14.5 70.8779 13.9C70.6946 13.3 70.3946 12.85 69.9779 12.55C69.5613 12.25 69.0196 12.1 68.3529 12.1C67.3696 12.1 66.6529 12.4417 66.2029 13.125C65.7696 13.7917 65.5529 14.8 65.5529 16.15ZM87.4814 9.35V12.15H81.7814V23H78.0564V9.35H87.4814ZM102.151 16.15C102.151 17.2833 101.992 18.2917 101.676 19.175C101.376 20.0583 100.934 20.8083 100.351 21.425C99.7841 22.025 99.0924 22.4833 98.2758 22.8C97.4591 23.1 96.5341 23.25 95.5008 23.25C94.5508 23.25 93.6674 23.1 92.8508 22.8C92.0508 22.4833 91.3591 22.025 90.7758 21.425C90.1924 20.8083 89.7341 20.0583 89.4008 19.175C89.0841 18.2917 88.9258 17.2833 88.9258 16.15C88.9258 14.6333 89.1924 13.3583 89.7258 12.325C90.2591 11.275 91.0258 10.475 92.0258 9.925C93.0258 9.375 94.2091 9.1 95.5758 9.1C96.8591 9.1 97.9924 9.375 98.9758 9.925C99.9591 10.475 100.734 11.275 101.301 12.325C101.867 13.3583 102.151 14.6333 102.151 16.15ZM92.7258 16.15C92.7258 17.05 92.8174 17.8083 93.0008 18.425C93.2008 19.025 93.5091 19.4833 93.9258 19.8C94.3424 20.1 94.8841 20.25 95.5508 20.25C96.2174 20.25 96.7508 20.1 97.1508 19.8C97.5674 19.4833 97.8674 19.025 98.0508 18.425C98.2508 17.8083 98.3508 17.05 98.3508 16.15C98.3508 15.25 98.2508 14.5 98.0508 13.9C97.8674 13.3 97.5674 12.85 97.1508 12.55C96.7341 12.25 96.1924 12.1 95.5258 12.1C94.5424 12.1 93.8258 12.4417 93.3758 13.125C92.9424 13.7917 92.7258 14.8 92.7258 16.15ZM117.504 9.35V20.275H119.504V27.9H116.154V23H106.979V27.9H103.629V20.275H104.779C105.379 19.3583 105.888 18.3167 106.304 17.15C106.721 15.9667 107.054 14.7083 107.304 13.375C107.554 12.0417 107.738 10.7 107.854 9.35H117.504ZM110.979 12.15C110.846 13.15 110.679 14.125 110.479 15.075C110.279 16.0083 110.029 16.9083 109.729 17.775C109.446 18.6417 109.096 19.475 108.679 20.275H113.779V12.15H110.979ZM127.431 9.075C129.264 9.075 130.664 9.475 131.631 10.275C132.614 11.0583 133.106 12.2667 133.106 13.9V23H130.506L129.781 21.15H129.681C129.298 21.6333 128.898 22.0333 128.481 22.35C128.081 22.6667 127.614 22.8917 127.081 23.025C126.564 23.175 125.923 23.25 125.156 23.25C124.356 23.25 123.631 23.1 122.981 22.8C122.348 22.4833 121.848 22.0083 121.481 21.375C121.114 20.725 120.931 19.9083 120.931 18.925C120.931 17.475 121.439 16.4083 122.456 15.725C123.473 15.025 124.998 14.6417 127.031 14.575L129.406 14.5V13.9C129.406 13.1833 129.214 12.6583 128.831 12.325C128.464 11.9917 127.948 11.825 127.281 11.825C126.614 11.825 125.964 11.925 125.331 12.125C124.698 12.3083 124.064 12.5417 123.431 12.825L122.206 10.3C122.939 9.91667 123.748 9.61667 124.631 9.4C125.531 9.18333 126.464 9.075 127.431 9.075ZM127.956 16.725C126.756 16.7583 125.923 16.975 125.456 17.375C124.989 17.775 124.756 18.3 124.756 18.95C124.756 19.5167 124.923 19.925 125.256 20.175C125.589 20.4083 126.023 20.525 126.556 20.525C127.356 20.525 128.031 20.2917 128.581 19.825C129.131 19.3417 129.406 18.6667 129.406 17.8V16.675L127.956 16.725ZM155.269 12.925C155.269 13.6583 155.035 14.2833 154.569 14.8C154.119 15.3167 153.444 15.65 152.544 15.8V15.9C153.494 16.0167 154.252 16.3417 154.819 16.875C155.402 17.4083 155.694 18.0917 155.694 18.925C155.694 19.5083 155.577 20.05 155.344 20.55C155.127 21.05 154.777 21.4833 154.294 21.85C153.81 22.2167 153.185 22.5 152.419 22.7C151.669 22.9 150.752 23 149.669 23H143.169V9.35H149.669C150.735 9.35 151.685 9.46667 152.519 9.7C153.369 9.91667 154.035 10.2833 154.519 10.8C155.019 11.3167 155.269 12.025 155.269 12.925ZM151.844 18.725C151.844 18.1917 151.635 17.8083 151.219 17.575C150.802 17.325 150.177 17.2 149.344 17.2H146.894V20.425H149.419C150.119 20.425 150.694 20.3 151.144 20.05C151.61 19.7833 151.844 19.3417 151.844 18.725ZM151.494 13.225C151.494 12.7917 151.327 12.475 150.994 12.275C150.66 12.075 150.169 11.975 149.519 11.975H146.894V14.675H149.094C149.877 14.675 150.469 14.5667 150.869 14.35C151.285 14.1167 151.494 13.7417 151.494 13.225ZM165.441 23V5.15H179.566V23H175.791V8.3H169.216V23H165.441ZM186.569 16.025L182.169 9.35H186.394L189.044 13.7L191.719 9.35H195.944L191.494 16.025L196.144 23H191.919L189.044 18.325L186.169 23H181.944L186.569 16.025ZM196.272 9.35H200.347L202.922 17.025C203.006 17.275 203.072 17.525 203.122 17.775C203.189 18.025 203.239 18.2833 203.272 18.55C203.322 18.8167 203.356 19.1 203.372 19.4H203.447C203.497 18.9667 203.564 18.5583 203.647 18.175C203.747 17.775 203.856 17.3917 203.972 17.025L206.497 9.35H210.497L204.722 24.75C204.372 25.6833 203.914 26.4667 203.347 27.1C202.797 27.7333 202.156 28.2083 201.422 28.525C200.689 28.8417 199.889 29 199.022 29C198.606 29 198.239 28.975 197.922 28.925C197.622 28.8917 197.356 28.85 197.122 28.8V25.85C197.306 25.8833 197.522 25.9167 197.772 25.95C198.039 25.9833 198.314 26 198.597 26C199.114 26 199.556 25.8917 199.922 25.675C200.306 25.4583 200.622 25.1583 200.872 24.775C201.122 24.4083 201.322 24.0083 201.472 23.575L201.697 22.9L196.272 9.35ZM221.406 9.35H225.506L220.106 15.9L225.981 23H221.756L216.181 16.075V23H212.456V9.35H216.181V15.975L221.406 9.35ZM233.071 9.1C234.338 9.1 235.421 9.34167 236.321 9.825C237.238 10.3083 237.946 11.0083 238.446 11.925C238.946 12.8417 239.196 13.9667 239.196 15.3V17.1H230.396C230.429 18.15 230.738 18.975 231.321 19.575C231.921 20.175 232.746 20.475 233.796 20.475C234.679 20.475 235.479 20.3917 236.196 20.225C236.913 20.0417 237.654 19.7667 238.421 19.4V22.275C237.754 22.6083 237.046 22.85 236.296 23C235.563 23.1667 234.671 23.25 233.621 23.25C232.254 23.25 231.046 23 229.996 22.5C228.946 21.9833 228.121 21.2083 227.521 20.175C226.921 19.1417 226.621 17.8417 226.621 16.275C226.621 14.675 226.888 13.35 227.421 12.3C227.971 11.2333 228.729 10.4333 229.696 9.9C230.663 9.36667 231.788 9.1 233.071 9.1ZM233.096 11.75C232.379 11.75 231.779 11.9833 231.296 12.45C230.829 12.9167 230.554 13.6417 230.471 14.625H235.696C235.696 14.075 235.596 13.5833 235.396 13.15C235.213 12.7167 234.929 12.375 234.546 12.125C234.163 11.875 233.679 11.75 233.096 11.75ZM253.517 12.15H249.042V23H245.317V12.15H240.842V9.35H253.517V12.15ZM261.416 9.1C262.682 9.1 263.766 9.34167 264.666 9.825C265.582 10.3083 266.291 11.0083 266.791 11.925C267.291 12.8417 267.541 13.9667 267.541 15.3V17.1H258.741C258.774 18.15 259.082 18.975 259.666 19.575C260.266 20.175 261.091 20.475 262.141 20.475C263.024 20.475 263.824 20.3917 264.541 20.225C265.257 20.0417 265.999 19.7667 266.766 19.4V22.275C266.099 22.6083 265.391 22.85 264.641 23C263.907 23.1667 263.016 23.25 261.966 23.25C260.599 23.25 259.391 23 258.341 22.5C257.291 21.9833 256.466 21.2083 255.866 20.175C255.266 19.1417 254.966 17.8417 254.966 16.275C254.966 14.675 255.232 13.35 255.766 12.3C256.316 11.2333 257.074 10.4333 258.041 9.9C259.007 9.36667 260.132 9.1 261.416 9.1ZM261.441 11.75C260.724 11.75 260.124 11.9833 259.641 12.45C259.174 12.9167 258.899 13.6417 258.816 14.625H264.041C264.041 14.075 263.941 13.5833 263.741 13.15C263.557 12.7167 263.274 12.375 262.891 12.125C262.507 11.875 262.024 11.75 261.441 11.75Z" fill="white"/>
<defs>
<linearGradient id="paint0_linear_5_42" x1="18.0996" y1="15.7109" x2="31.5123" y2="15.7109" gradientUnits="userSpaceOnUse">
<stop stop-color="#F5FBFF"/>
<stop offset="1" stop-color="#DBD5EF"/>
</linearGradient>
<linearGradient id="paint1_linear_5_42" x1="20.0155" y1="15.9175" x2="17.6918" y2="15.9175" gradientUnits="userSpaceOnUse">
<stop stop-color="#DBD5EF" stop-opacity="0"/>
<stop offset="0.285" stop-color="#D9D2EE" stop-opacity="0.285"/>
<stop offset="0.474" stop-color="#D4C9E9" stop-opacity="0.474"/>
<stop offset="0.635" stop-color="#CBBAE2" stop-opacity="0.635"/>
<stop offset="0.779" stop-color="#BFA5D7" stop-opacity="0.78"/>
<stop offset="0.913" stop-color="#AF8ACA" stop-opacity="0.913"/>
<stop offset="1" stop-color="#A274BF"/>
</linearGradient>
<linearGradient id="paint2_linear_5_42" x1="28.7036" y1="14.7772" x2="31.7444" y2="14.7772" gradientUnits="userSpaceOnUse">
<stop stop-color="#DBD5EF" stop-opacity="0"/>
<stop offset="0.285" stop-color="#D9D2EE" stop-opacity="0.285"/>
<stop offset="0.474" stop-color="#D4C9E9" stop-opacity="0.474"/>
<stop offset="0.635" stop-color="#CBBAE2" stop-opacity="0.635"/>
<stop offset="0.779" stop-color="#BFA5D7" stop-opacity="0.78"/>
<stop offset="0.913" stop-color="#AF8ACA" stop-opacity="0.913"/>
<stop offset="1" stop-color="#A274BF"/>
</linearGradient>
<linearGradient id="paint3_linear_5_42" x1="20.4313" y1="23.4179" x2="29.2779" y2="23.4179" gradientUnits="userSpaceOnUse">
<stop stop-color="#FD4755"/>
<stop offset="1" stop-color="#C41926"/>
</linearGradient>
<linearGradient id="paint4_linear_5_42" x1="22.9322" y1="22.2994" x2="23.2886" y2="24.5865" gradientUnits="userSpaceOnUse">
<stop stop-color="#A72B2B" stop-opacity="0"/>
<stop offset="0.288" stop-color="#A42C2B" stop-opacity="0.289"/>
<stop offset="0.534" stop-color="#9A2D2A" stop-opacity="0.534"/>
<stop offset="0.764" stop-color="#882F28" stop-opacity="0.764"/>
<stop offset="0.984" stop-color="#6F3226" stop-opacity="0.984"/>
<stop offset="1" stop-color="#6D3326"/>
</linearGradient>
<linearGradient id="paint5_linear_5_42" x1="18.4744" y1="23.9746" x2="14.7763" y2="23.2171" gradientUnits="userSpaceOnUse">
<stop stop-color="#A72B2B" stop-opacity="0"/>
<stop offset="0.288" stop-color="#A42C2B" stop-opacity="0.289"/>
<stop offset="0.534" stop-color="#9A2D2A" stop-opacity="0.534"/>
<stop offset="0.764" stop-color="#882F28" stop-opacity="0.764"/>
<stop offset="0.984" stop-color="#6F3226" stop-opacity="0.984"/>
<stop offset="1" stop-color="#6D3326"/>
</linearGradient>
<linearGradient id="paint6_linear_5_42" x1="19.6591" y1="15.5166" x2="29.1104" y2="15.5166" gradientUnits="userSpaceOnUse">
<stop stop-color="#4F66D0"/>
<stop offset="1" stop-color="#2740B0"/>
</linearGradient>
<linearGradient id="paint7_linear_5_42" x1="20.0155" y1="16.0494" x2="16.6712" y2="16.0494" gradientUnits="userSpaceOnUse">
<stop stop-color="#192A7D" stop-opacity="0"/>
<stop offset="0.395" stop-color="#192678" stop-opacity="0.395"/>
<stop offset="0.862" stop-color="#1B196A" stop-opacity="0.862"/>
<stop offset="1" stop-color="#1B1464"/>
</linearGradient>
<linearGradient id="paint8_linear_5_42" x1="20.2828" y1="7.15318" x2="29.9658" y2="7.15318" gradientUnits="userSpaceOnUse">
<stop stop-color="#FD4755"/>
<stop offset="1" stop-color="#C41926"/>
</linearGradient>
<linearGradient id="paint9_linear_5_42" x1="19.8818" y1="7.68594" x2="17.3804" y2="7.68594" gradientUnits="userSpaceOnUse">
<stop stop-color="#A72B2B" stop-opacity="0"/>
<stop offset="0.288" stop-color="#A42C2B" stop-opacity="0.289"/>
<stop offset="0.534" stop-color="#9A2D2A" stop-opacity="0.534"/>
<stop offset="0.764" stop-color="#882F28" stop-opacity="0.764"/>
<stop offset="0.984" stop-color="#6F3226" stop-opacity="0.984"/>
<stop offset="1" stop-color="#6D3326"/>
</linearGradient>
<linearGradient id="paint10_linear_5_42" x1="30.1739" y1="14.8372" x2="31.6121" y2="14.8372" gradientUnits="userSpaceOnUse">
<stop stop-color="#192A7D" stop-opacity="0"/>
<stop offset="0.395" stop-color="#192678" stop-opacity="0.395"/>
<stop offset="0.862" stop-color="#1B196A" stop-opacity="0.862"/>
<stop offset="1" stop-color="#1B1464"/>
</linearGradient>
<linearGradient id="paint11_linear_5_42" x1="29.4164" y1="22.3129" x2="32.0316" y2="22.3129" gradientUnits="userSpaceOnUse">
<stop stop-color="#A72B2B" stop-opacity="0"/>
<stop offset="0.288" stop-color="#A42C2B" stop-opacity="0.289"/>
<stop offset="0.534" stop-color="#9A2D2A" stop-opacity="0.534"/>
<stop offset="0.764" stop-color="#882F28" stop-opacity="0.764"/>
<stop offset="0.984" stop-color="#6F3226" stop-opacity="0.984"/>
<stop offset="1" stop-color="#6D3326"/>
</linearGradient>
<linearGradient id="paint12_linear_5_42" x1="29.4164" y1="6.47381" x2="32.0316" y2="6.47381" gradientUnits="userSpaceOnUse">
<stop stop-color="#A72B2B" stop-opacity="0"/>
<stop offset="0.288" stop-color="#A42C2B" stop-opacity="0.289"/>
<stop offset="0.534" stop-color="#9A2D2A" stop-opacity="0.534"/>
<stop offset="0.764" stop-color="#882F28" stop-opacity="0.764"/>
<stop offset="0.984" stop-color="#6F3226" stop-opacity="0.984"/>
<stop offset="1" stop-color="#6D3326"/>
</linearGradient>
<linearGradient id="paint13_linear_5_42" x1="13.6528" y1="21.3774" x2="17.128" y2="22.5803" gradientUnits="userSpaceOnUse">
<stop stop-color="#FD4755"/>
<stop offset="1" stop-color="#C41926"/>
</linearGradient>
<linearGradient id="paint14_linear_5_42" x1="16.2291" y1="22.7935" x2="15.4568" y2="20.7588" gradientUnits="userSpaceOnUse">
<stop stop-color="#A72B2B" stop-opacity="0"/>
<stop offset="0.288" stop-color="#A42C2B" stop-opacity="0.289"/>
<stop offset="0.534" stop-color="#9A2D2A" stop-opacity="0.534"/>
<stop offset="0.764" stop-color="#882F28" stop-opacity="0.764"/>
<stop offset="0.984" stop-color="#6F3226" stop-opacity="0.984"/>
<stop offset="1" stop-color="#6D3326"/>
</linearGradient>
<linearGradient id="paint15_linear_5_42" x1="13.2721" y1="23.1596" x2="17.7424" y2="21.5705" gradientUnits="userSpaceOnUse">
<stop stop-color="#A72B2B" stop-opacity="0"/>
<stop offset="0.288" stop-color="#A42C2B" stop-opacity="0.289"/>
<stop offset="0.534" stop-color="#9A2D2A" stop-opacity="0.534"/>
<stop offset="0.764" stop-color="#882F28" stop-opacity="0.764"/>
<stop offset="0.984" stop-color="#6F3226" stop-opacity="0.984"/>
<stop offset="1" stop-color="#6D3326"/>
</linearGradient>
<linearGradient id="paint16_linear_5_42" x1="3.39669" y1="13.0394" x2="14.9899" y2="13.0394" gradientUnits="userSpaceOnUse">
<stop stop-color="#F5FBFF"/>
<stop offset="1" stop-color="#DBD5EF"/>
</linearGradient>
<linearGradient id="paint17_linear_5_42" x1="14.0006" y1="12.8244" x2="17.6584" y2="12.8244" gradientUnits="userSpaceOnUse">
<stop stop-color="#DBD5EF" stop-opacity="0"/>
<stop offset="0.285" stop-color="#D9D2EE" stop-opacity="0.285"/>
<stop offset="0.474" stop-color="#D4C9E9" stop-opacity="0.474"/>
<stop offset="0.635" stop-color="#CBBAE2" stop-opacity="0.635"/>
<stop offset="0.779" stop-color="#BFA5D7" stop-opacity="0.78"/>
<stop offset="0.913" stop-color="#AF8ACA" stop-opacity="0.913"/>
<stop offset="1" stop-color="#A274BF"/>
</linearGradient>
<linearGradient id="paint18_linear_5_42" x1="3.664" y1="4.60662" x2="13.0075" y2="4.60662" gradientUnits="userSpaceOnUse">
<stop stop-color="#FD4755"/>
<stop offset="1" stop-color="#C41926"/>
</linearGradient>
<linearGradient id="paint19_linear_5_42" x1="3.664" y1="20.5859" x2="13.0075" y2="20.5859" gradientUnits="userSpaceOnUse">
<stop stop-color="#FD4755"/>
<stop offset="1" stop-color="#C41926"/>
</linearGradient>
<linearGradient id="paint20_linear_5_42" x1="8.69106" y1="19.4483" x2="9.31481" y2="22.7453" gradientUnits="userSpaceOnUse">
<stop stop-color="#A72B2B" stop-opacity="0"/>
<stop offset="0.288" stop-color="#A42C2B" stop-opacity="0.289"/>
<stop offset="0.534" stop-color="#9A2D2A" stop-opacity="0.534"/>
<stop offset="0.764" stop-color="#882F28" stop-opacity="0.764"/>
<stop offset="0.984" stop-color="#6F3226" stop-opacity="0.984"/>
<stop offset="1" stop-color="#6D3326"/>
</linearGradient>
<linearGradient id="paint21_linear_5_42" x1="1.52538" y1="12.596" x2="15.3531" y2="12.596" gradientUnits="userSpaceOnUse">
<stop stop-color="#4F66D0"/>
<stop offset="1" stop-color="#2740B0"/>
</linearGradient>
<linearGradient id="paint22_linear_5_42" x1="14.5798" y1="4.23437" x2="17.0653" y2="4.23437" gradientUnits="userSpaceOnUse">
<stop stop-color="#A72B2B" stop-opacity="0"/>
<stop offset="0.288" stop-color="#A42C2B" stop-opacity="0.289"/>
<stop offset="0.534" stop-color="#9A2D2A" stop-opacity="0.534"/>
<stop offset="0.764" stop-color="#882F28" stop-opacity="0.764"/>
<stop offset="0.984" stop-color="#6F3226" stop-opacity="0.984"/>
<stop offset="1" stop-color="#6D3326"/>
</linearGradient>
<linearGradient id="paint23_linear_5_42" x1="14.5798" y1="20.2131" x2="17.0653" y2="20.2131" gradientUnits="userSpaceOnUse">
<stop stop-color="#A72B2B" stop-opacity="0"/>
<stop offset="0.288" stop-color="#A42C2B" stop-opacity="0.289"/>
<stop offset="0.534" stop-color="#9A2D2A" stop-opacity="0.534"/>
<stop offset="0.764" stop-color="#882F28" stop-opacity="0.764"/>
<stop offset="0.984" stop-color="#6F3226" stop-opacity="0.984"/>
<stop offset="1" stop-color="#6D3326"/>
</linearGradient>
<linearGradient id="paint24_linear_5_42" x1="14.1788" y1="12.2237" x2="17.4065" y2="12.2237" gradientUnits="userSpaceOnUse">
<stop stop-color="#192A7D" stop-opacity="0"/>
<stop offset="0.395" stop-color="#192678" stop-opacity="0.395"/>
<stop offset="0.862" stop-color="#1B196A" stop-opacity="0.862"/>
<stop offset="1" stop-color="#1B1464"/>
</linearGradient>
</defs>
</svg>
