<svg xmlns="http://www.w3.org/2000/svg" version="1.1" xmlns:xlink="http://www.w3.org/1999/xlink" width="512" height="512" x="0" y="0" viewBox="0 0 24 24" style="enable-background:new 0 0 512 512" xml:space="preserve" class=""><g><g data-name="Layer 2"><path d="M11.25 3.25v11.5H6A4.75 4.75 0 0 1 1.25 10V8A4.75 4.75 0 0 1 6 3.25zM22.022.967a1.749 1.749 0 0 0-1.576-.239l-8.2 2.731v11.082l8.2 2.731a1.722 1.722 0 0 0 .553.09 1.749 1.749 0 0 0 1.751-1.749V2.387a1.751 1.751 0 0 0-.728-1.42zM12.4 21.53a3.18 3.18 0 0 1-5.59-1.19l-1.15-4.61a1.94 1.94 0 0 0 .34.02h6.21l.76 3.05a3.179 3.179 0 0 1-.57 2.73z" fill="#fff" opacity="1" data-original="#000000" class=""></path></g></g></svg>